<svg id="visual" viewBox="0 0 1080 1920" width="1080" height="1920" xmlns="http://www.w3.org/2000/svg" xmlns:xlink="http://www.w3.org/1999/xlink" version="1.1"><path d="M0 231L83 270L166 193L249 270L332 212L415 289L498 308L582 231L665 231L748 251L831 270L914 251L997 212L1080 251L1080 0L997 0L914 0L831 0L748 0L665 0L582 0L498 0L415 0L332 0L249 0L166 0L83 0L0 0Z" fill="#00cc8e"></path><path d="M0 347L83 385L166 308L249 385L332 347L415 423L498 404L582 366L665 347L748 347L831 385L914 366L997 347L1080 366L1080 249L997 210L914 249L831 268L748 249L665 229L582 229L498 306L415 287L332 210L249 268L166 191L83 268L0 229Z" fill="#00c38c"></path><path d="M0 500L83 615L166 519L249 577L332 539L415 615L498 558L582 577L665 519L748 558L831 615L914 539L997 577L1080 596L1080 364L997 345L914 364L831 383L748 345L665 345L582 364L498 402L415 421L332 345L249 383L166 306L83 383L0 345Z" fill="#00b98a"></path><path d="M0 654L83 788L166 673L249 750L332 654L415 769L498 692L582 711L665 654L748 711L831 769L914 654L997 731L1080 731L1080 594L997 575L914 537L831 613L748 556L665 517L582 575L498 556L415 613L332 537L249 575L166 517L83 613L0 498Z" fill="#00b087"></path><path d="M0 750L83 884L166 788L249 846L332 769L415 865L498 807L582 827L665 769L748 827L831 865L914 750L997 846L1080 827L1080 729L997 729L914 652L831 767L748 709L665 652L582 709L498 690L415 767L332 652L249 748L166 671L83 786L0 652Z" fill="#00a784"></path><path d="M0 942L83 1076L166 961L249 980L332 942L415 1038L498 980L582 961L665 903L748 999L831 1019L914 884L997 980L1080 961L1080 825L997 844L914 748L831 863L748 825L665 767L582 825L498 805L415 863L332 767L249 844L166 786L83 882L0 748Z" fill="#009e80"></path><path d="M0 1364L83 1403L166 1460L249 1460L332 1383L415 1460L498 1422L582 1422L665 1345L748 1383L831 1403L914 1345L997 1383L1080 1403L1080 959L997 978L914 882L831 1017L748 997L665 901L582 959L498 978L415 1036L332 940L249 978L166 959L83 1074L0 940Z" fill="#00957c"></path><path d="M0 1825L83 1825L166 1787L249 1825L332 1787L415 1787L498 1806L582 1787L665 1787L748 1787L831 1806L914 1806L997 1787L1080 1787L1080 1401L997 1381L914 1343L831 1401L748 1381L665 1343L582 1420L498 1420L415 1458L332 1381L249 1458L166 1458L83 1401L0 1362Z" fill="#008c78"></path><path d="M0 1921L83 1921L166 1921L249 1921L332 1921L415 1921L498 1921L582 1921L665 1921L748 1921L831 1921L914 1921L997 1921L1080 1921L1080 1785L997 1785L914 1804L831 1804L748 1785L665 1785L582 1785L498 1804L415 1785L332 1785L249 1823L166 1785L83 1823L0 1823Z" fill="#038373"></path></svg>