<svg id="visual" viewBox="0 0 1920 1080" width="1920" height="1080" xmlns="http://www.w3.org/2000/svg" xmlns:xlink="http://www.w3.org/1999/xlink" version="1.1"><path d="M0 66L160 87L320 55L480 98L640 66L800 87L960 55L1120 77L1280 77L1440 77L1600 77L1760 44L1920 66L1920 0L1760 0L1600 0L1440 0L1280 0L1120 0L960 0L800 0L640 0L480 0L320 0L160 0L0 0Z" fill="#00cc8e"></path><path d="M0 325L160 347L320 444L480 422L640 444L800 422L960 368L1120 347L1280 282L1440 368L1600 357L1760 379L1920 228L1920 64L1760 42L1600 75L1440 75L1280 75L1120 75L960 53L800 85L640 64L480 96L320 53L160 85L0 64Z" fill="#00c18c"></path><path d="M0 368L160 401L320 487L480 498L640 541L800 487L960 455L1120 411L1280 347L1440 433L1600 433L1760 444L1920 314L1920 226L1760 377L1600 355L1440 366L1280 280L1120 345L960 366L800 420L640 442L480 420L320 442L160 345L0 323Z" fill="#00b789"></path><path d="M0 552L160 563L320 638L480 584L640 627L800 595L960 584L1120 541L1280 509L1440 519L1600 660L1760 595L1920 487L1920 312L1760 442L1600 431L1440 431L1280 345L1120 409L960 453L800 485L640 539L480 496L320 485L160 399L0 366Z" fill="#00ac86"></path><path d="M0 660L160 671L320 714L480 692L640 725L800 660L960 649L1120 617L1280 606L1440 606L1600 714L1760 681L1920 541L1920 485L1760 593L1600 658L1440 517L1280 507L1120 539L960 582L800 593L640 625L480 582L320 636L160 561L0 550Z" fill="#00a282"></path><path d="M0 833L160 833L320 876L480 833L640 887L800 789L960 908L1120 843L1280 854L1440 843L1600 897L1760 930L1920 833L1920 539L1760 679L1600 712L1440 604L1280 604L1120 615L960 647L800 658L640 723L480 690L320 712L160 669L0 658Z" fill="#00977e"></path><path d="M0 941L160 962L320 1005L480 941L640 1005L800 930L960 995L1120 941L1280 941L1440 908L1600 984L1760 995L1920 908L1920 831L1760 928L1600 895L1440 841L1280 852L1120 841L960 906L800 787L640 885L480 831L320 874L160 831L0 831Z" fill="#008d79"></path><path d="M0 1081L160 1081L320 1081L480 1081L640 1081L800 1081L960 1081L1120 1081L1280 1081L1440 1081L1600 1081L1760 1081L1920 1081L1920 906L1760 993L1600 982L1440 906L1280 939L1120 939L960 993L800 928L640 1003L480 939L320 1003L160 960L0 939Z" fill="#038373"></path></svg>